HIERARCHY
ROOT hip
{
	OFFSET 0.000000 0.000000 0.000000 
	CHANNELS 6 Xposition Yposition Zposition Zrotation Yrotation Xrotation
	JOINT abdomen
	{
		OFFSET 0.000000 20.688101 -0.731520 
		CHANNELS 3 Zrotation Xrotation Yrotation
		JOINT chest
		{
			OFFSET 0.000000 11.704300 -0.487680 
			CHANNELS 3 Zrotation Xrotation Yrotation
			JOINT neck
			{
				OFFSET 0.000000 22.189400 -2.194560 
				CHANNELS 3 Zrotation Xrotation Yrotation
				JOINT head
				{
					OFFSET -0.243840 7.071330 1.219200 
					CHANNELS 3 Zrotation Xrotation Yrotation
					JOINT leftEye
					{
						OFFSET 4.145280 8.046740 8.046720 
						CHANNELS 3 Zrotation Xrotation Yrotation
						End Site
						{
							OFFSET 1.000000 0.000000 0.000000 
						}
					}
					JOINT rightEye
					{
						OFFSET -3.657600 8.046740 8.046720 
						CHANNELS 3 Zrotation Xrotation Yrotation
						End Site
						{
							OFFSET 1.000000 0.000000 0.000000 
						}
					}
				}
			}
			JOINT rCollar
			{
				OFFSET -2.682240 19.263399 -4.876800 
				CHANNELS 3 Zrotation Xrotation Yrotation
				JOINT rShldr
				{
					OFFSET -8.778240 -1.950730 1.463040 
					CHANNELS 3 Zrotation Xrotation Yrotation
					JOINT rForeArm
					{
						OFFSET -28.174200 -1.711500 0.487680 
						CHANNELS 3 Zrotation Xrotation Yrotation
						JOINT rHand
						{
							OFFSET -22.587900 0.773209 7.071360 
							CHANNELS 3 Zrotation Xrotation Yrotation
							JOINT rThumb1
							{
								OFFSET -1.219200 -0.487915 3.413760 
								CHANNELS 3 Zrotation Xrotation Yrotation
								JOINT rThumb2
								{
									OFFSET -3.370350 -0.524490 3.413760 
									CHANNELS 3 Zrotation Xrotation Yrotation
									End Site
									{
										OFFSET -1.782710 -1.182140 1.430490 
									}
								}
							}
							JOINT rIndex1
							{
								OFFSET -7.759470 0.938293 5.608320 
								CHANNELS 3 Zrotation Xrotation Yrotation
								JOINT rIndex2
								{
									OFFSET -2.540570 -0.884171 1.565380 
									CHANNELS 3 Zrotation Xrotation Yrotation
									End Site
									{
										OFFSET -1.625190 -0.234802 1.165020 
									}
								}
							}
							JOINT rMid1
							{
								OFFSET -8.247140 1.182130 3.413760 
								CHANNELS 3 Zrotation Xrotation Yrotation
								JOINT rMid2
								{
									OFFSET -3.101650 -0.590103 1.064700 
									CHANNELS 3 Zrotation Xrotation Yrotation
									End Site
									{
										OFFSET -2.485470 -0.328903 0.837420 
									}
								}
							}
							JOINT rRing1
							{
								OFFSET -8.828220 0.546677 1.516780 
								CHANNELS 3 Zrotation Xrotation Yrotation
								JOINT rRing2
								{
									OFFSET -2.609340 -0.819778 -0.019849 
									CHANNELS 3 Zrotation Xrotation Yrotation
									End Site
									{
										OFFSET -2.338420 -0.294052 0.168128 
									}
								}
							}
							JOINT rPinky1
							{
								OFFSET -8.272020 -0.047791 -0.458400 
								CHANNELS 3 Zrotation Xrotation Yrotation
								JOINT rPinky2
								{
									OFFSET -1.827340 -0.647385 -0.700984 
									CHANNELS 3 Zrotation Xrotation Yrotation
									End Site
									{
										OFFSET -1.692250 -0.517670 -0.607171 
									}
								}
							}
						}
					}
				}
			}
			JOINT lCollar
			{
				OFFSET 2.682240 19.263399 -4.876800 
				CHANNELS 3 Zrotation Xrotation Yrotation
				JOINT lShldr
				{
					OFFSET 8.778240 -1.950730 1.463040 
					CHANNELS 3 Zrotation Xrotation Yrotation
					JOINT lForeArm
					{
						OFFSET 28.174200 -1.711500 0.487680 
						CHANNELS 3 Zrotation Xrotation Yrotation
						JOINT lHand
						{
							OFFSET 22.587900 0.773209 7.071360 
							CHANNELS 3 Zrotation Xrotation Yrotation
							JOINT lThumb1
							{
								OFFSET 1.219200 -0.487915 3.413760 
								CHANNELS 3 Zrotation Xrotation Yrotation
								JOINT lThumb2
								{
									OFFSET 3.370350 -0.524490 3.413760 
									CHANNELS 3 Zrotation Xrotation Yrotation
									End Site
									{
										OFFSET 1.782710 -1.182140 1.430490 
									}
								}
							}
							JOINT lIndex1
							{
								OFFSET 7.759470 0.938293 5.608320 
								CHANNELS 3 Zrotation Xrotation Yrotation
								JOINT lIndex2
								{
									OFFSET 2.540570 -0.884171 1.565380 
									CHANNELS 3 Zrotation Xrotation Yrotation
									End Site
									{
										OFFSET 1.625190 -0.234802 1.165020 
									}
								}
							}
							JOINT lMid1
							{
								OFFSET 8.247140 1.182130 3.413760 
								CHANNELS 3 Zrotation Xrotation Yrotation
								JOINT lMid2
								{
									OFFSET 3.101650 -0.590103 1.064700 
									CHANNELS 3 Zrotation Xrotation Yrotation
									End Site
									{
										OFFSET 2.485470 -0.328903 0.837420 
									}
								}
							}
							JOINT lRing1
							{
								OFFSET 8.828220 0.546677 1.516780 
								CHANNELS 3 Zrotation Xrotation Yrotation
								JOINT lRing2
								{
									OFFSET 2.609340 -0.819778 -0.019849 
									CHANNELS 3 Zrotation Xrotation Yrotation
									End Site
									{
										OFFSET 2.338420 -0.294052 0.168128 
									}
								}
							}
							JOINT lPinky1
							{
								OFFSET 8.272020 -0.047791 -0.458400 
								CHANNELS 3 Zrotation Xrotation Yrotation
								JOINT lPinky2
								{
									OFFSET 1.827340 -0.647385 -0.700984 
									CHANNELS 3 Zrotation Xrotation Yrotation
									End Site
									{
										OFFSET 1.692250 -0.517670 -0.607171 
									}
								}
							}
						}
					}
				}
			}
		}
	}
	JOINT rButtock
	{
		OFFSET -8.778240 4.350840 1.219200 
		CHANNELS 3 Zrotation Xrotation Yrotation
		JOINT rThigh
		{
			OFFSET 0.000000 -1.706870 -2.194560 
			CHANNELS 3 Zrotation Xrotation Yrotation
			JOINT rShin
			{
				OFFSET 0.000000 -36.819901 0.731520 
				CHANNELS 3 Zrotation Xrotation Yrotation
				JOINT rFoot
				{
					OFFSET 0.731520 -45.110401 -5.120640 
					CHANNELS 3 Zrotation Xrotation Yrotation
					End Site
					{
						OFFSET -1.122100 -3.699640 12.103000 
					}
				}
			}
		}
	}
	JOINT lButtock
	{
		OFFSET 8.778240 4.350840 1.219200 
		CHANNELS 3 Zrotation Xrotation Yrotation
		JOINT lThigh
		{
			OFFSET 0.000000 -1.706870 -2.194560 
			CHANNELS 3 Zrotation Xrotation Yrotation
			JOINT lShin
			{
				OFFSET 0.000000 -36.819901 0.731520 
				CHANNELS 3 Zrotation Xrotation Yrotation
				JOINT lFoot
				{
					OFFSET -0.731520 -45.110401 -5.120640 
					CHANNELS 3 Zrotation Xrotation Yrotation
					End Site
					{
						OFFSET 1.122100 -3.699640 12.103000 
					}
				}
			}
		}
	}
}
MOTION
Frames: 6
Frame Time: 0.040000
0.000000 0.000000 -190.000000 0.000000 0.000000 0.000000 1.958100 12.300900 -0.679000 -0.010200 -0.011800 0.049900 -9.365300 2.847600 -4.158900 12.759300 -0.177200 2.011000 0.000000 0.000000 0.000000 0.000000 0.000000 0.000000 0.000000 0.000000 0.000000 64.584900 27.754400 -1.671500 -13.305200 -7.206800 23.404800 3.975800 33.168499 9.518200 0.000000 0.000000 0.000000 0.000000 0.000000 0.000000 0.000000 0.000000 0.000000 0.023500 0.013400 0.013600 0.000000 0.000000 0.000000 0.029800 0.008500 0.015800 0.000000 0.000000 0.000000 0.015400 0.020800 0.035000 0.000000 0.000000 0.000000 0.027500 -0.022200 -0.029200 0.000000 0.000000 0.000000 -48.584900 7.451700 -9.758200 24.058100 -20.455200 -41.442101 -5.088000 -2.004900 -6.645200 0.000000 0.000000 0.000000 0.000000 0.000000 0.000000 0.000000 0.000000 0.000000 -0.013200 0.006100 -0.005200 0.000000 0.000000 0.000000 -0.032800 0.030100 -0.004900 0.000000 0.000000 0.000000 -0.030000 0.004100 -0.032300 0.000000 0.000000 0.000000 -0.003800 -0.018400 0.013800 0.000000 0.000000 0.000000 -5.019800 -5.247500 0.900500 -1.838100 24.087299 -2.618600 -1.554600 -9.232400 -7.583800 0.000000 0.000000 0.000000 -0.537900 -15.285600 -15.691400 4.685500 37.393501 -0.496200 3.493900 -10.722400 5.486300 
0.000000 0.000000 -190.000000 0.000000 0.000000 0.000000 1.958100 12.300900 -0.679000 -0.010200 -0.011800 0.049900 -9.365300 2.847600 -4.158900 12.759300 -0.177200 2.011000 0.000000 0.000000 0.000000 0.000000 0.000000 0.000000 0.000000 0.000000 0.000000 64.584900 27.754400 -1.671500 -13.305200 -7.206800 23.404800 3.975800 33.168499 9.518200 0.000000 0.000000 0.000000 0.000000 0.000000 0.000000 0.000000 0.000000 0.000000 0.023500 0.013400 0.013600 0.000000 0.000000 0.000000 0.029800 0.008500 0.015800 0.000000 0.000000 0.000000 0.015400 0.020800 0.035000 0.000000 0.000000 0.000000 0.027500 -0.022200 -0.029200 0.000000 0.000000 0.000000 -48.584900 7.451700 -9.758200 24.058100 -20.455200 -41.442101 -5.088000 -2.004900 -6.645200 0.000000 0.000000 0.000000 0.000000 0.000000 0.000000 0.000000 0.000000 0.000000 -0.013200 0.006100 -0.005200 0.000000 0.000000 0.000000 -0.032800 0.030100 -0.004900 0.000000 0.000000 0.000000 -0.030000 0.004100 -0.032300 0.000000 0.000000 0.000000 -0.003800 -0.018400 0.013800 0.000000 0.000000 0.000000 -5.019800 -5.247500 0.900500 -1.838100 24.087299 -2.618600 -1.554600 -9.232400 -7.583800 0.000000 0.000000 0.000000 -0.537900 -15.285600 -15.691400 4.685500 37.393501 -0.496200 3.493900 -10.722400 5.486300 
0.000000 0.000000 -190.000000 0.000000 0.000000 0.000000 1.957800 11.991000 -0.733900 -0.010200 -0.011800 0.049900 -9.666200 2.235500 -4.158900 12.481800 -0.177200 -1.514300 0.000000 0.000000 0.000000 0.000000 0.000000 0.000000 0.000000 0.000000 0.000000 65.938499 26.962000 -2.049100 -13.612600 -7.228800 22.939301 4.143700 33.141399 9.084500 0.000000 0.000000 0.000000 0.000000 0.000000 0.000000 0.000000 0.000000 0.000000 0.023500 0.013400 0.013600 0.000000 0.000000 0.000000 0.029800 0.008500 0.015800 0.000000 0.000000 0.000000 0.015400 0.020800 0.035000 0.000000 0.000000 0.000000 0.027500 -0.022200 -0.029200 0.000000 0.000000 0.000000 -52.509201 10.710200 -7.072900 24.774099 -20.067200 -46.379398 -3.769500 -6.898300 -5.084300 0.000000 0.000000 0.000000 0.000000 0.000000 0.000000 0.000000 0.000000 0.000000 -0.013200 0.006100 -0.005200 0.000000 0.000000 0.000000 -0.032800 0.030100 -0.004900 0.000000 0.000000 0.000000 -0.030000 0.004100 -0.032300 0.000000 0.000000 0.000000 -0.003800 -0.018400 0.013800 0.000000 0.000000 0.000000 -4.950800 -4.136500 0.758300 -1.942100 24.429399 -2.659800 -1.516200 -9.183200 -7.462300 0.000000 0.000000 0.000000 -0.102900 -14.409500 -16.788900 4.954400 37.580299 -0.483700 3.468600 -10.748600 5.460000 
0.000000 0.000000 -190.000000 0.000000 0.000000 0.000000 1.957800 11.991000 -0.733900 -0.010200 -0.011800 0.049900 -9.666200 2.235500 -4.158900 12.481800 -0.177200 -1.514300 0.000000 0.000000 0.000000 0.000000 0.000000 0.000000 0.000000 0.000000 0.000000 65.938499 26.962000 -2.049100 -13.612600 -7.228800 22.939301 4.143700 33.141399 9.084500 0.000000 0.000000 0.000000 0.000000 0.000000 0.000000 0.000000 0.000000 0.000000 0.023500 0.013400 0.013600 0.000000 0.000000 0.000000 0.029800 0.008500 0.015800 0.000000 0.000000 0.000000 0.015400 0.020800 0.035000 0.000000 0.000000 0.000000 0.027500 -0.022200 -0.029200 0.000000 0.000000 0.000000 -52.509201 10.710200 -7.072900 24.774099 -20.067200 -46.379398 -3.769500 -6.898300 -5.084300 0.000000 0.000000 0.000000 0.000000 0.000000 0.000000 0.000000 0.000000 0.000000 -0.013200 0.006100 -0.005200 0.000000 0.000000 0.000000 -0.032800 0.030100 -0.004900 0.000000 0.000000 0.000000 -0.030000 0.004100 -0.032300 0.000000 0.000000 0.000000 -0.003800 -0.018400 0.013800 0.000000 0.000000 0.000000 -4.950800 -4.136500 0.758300 -1.942100 24.429399 -2.659800 -1.516200 -9.183200 -7.462300 0.000000 0.000000 0.000000 -0.102900 -14.409500 -16.788900 4.954400 37.580299 -0.483700 3.468600 -10.748600 5.460000 
0.000000 0.000000 -190.000000 0.000000 0.000000 0.000000 7.170600 10.630600 0.151400 -0.010200 -0.011800 0.050000 -10.304600 3.210600 -4.298000 13.129100 -0.177200 -4.747300 0.000000 0.000000 0.000000 0.000000 0.000000 0.000000 0.000000 0.000000 0.000000 65.173103 25.462299 -0.613500 -15.455200 -7.131200 21.753300 3.447400 30.138599 8.656400 0.000000 0.000000 0.000000 0.000000 0.000000 0.000000 0.000000 0.000000 0.000000 0.023500 0.013400 0.013600 0.000000 0.000000 0.000000 0.029900 0.008500 0.015800 0.000000 0.000000 0.000000 0.015400 0.020800 0.035100 0.000000 0.000000 0.000000 0.027600 -0.022200 -0.029300 0.000000 0.000000 0.000000 -50.118000 19.255199 -16.433399 25.888000 -26.293301 -69.037598 -0.401300 -8.723400 -2.859700 0.000000 0.000000 0.000000 0.000000 0.000000 0.000000 0.000000 0.000000 0.000000 -0.013200 0.006100 -0.005200 0.000000 0.000000 0.000000 -0.032900 0.030200 -0.004900 0.000000 0.000000 0.000000 -0.030100 0.004100 -0.032400 0.000000 0.000000 0.000000 -0.003800 -0.018400 0.013800 0.000000 0.000000 0.000000 -0.990300 -0.216900 0.209800 0.047700 27.495800 -2.353700 -1.679900 -8.852000 -7.432900 0.000000 0.000000 0.000000 1.349300 -12.132000 -12.974900 5.097100 33.135101 -1.069000 2.901500 -10.680900 4.180500 
0.000000 0.000000 -190.000000 0.000000 0.000000 0.000000 6.952100 10.674900 -0.170900 -0.010200 -0.011800 0.050000 -10.266900 3.305900 -4.292100 13.154500 -0.177200 -4.747300 0.000000 0.000000 0.000000 0.000000 0.000000 0.000000 0.000000 0.000000 0.000000 65.123398 27.198500 -0.217100 -15.627200 -7.114200 21.594400 3.496600 30.201000 8.566800 0.000000 0.000000 0.000000 0.000000 0.000000 0.000000 0.000000 0.000000 0.000000 0.023500 0.013400 0.013600 0.000000 0.000000 0.000000 0.029900 0.008500 0.015800 0.000000 0.000000 0.000000 0.015400 0.020800 0.035100 0.000000 0.000000 0.000000 0.027600 -0.022200 -0.029300 0.000000 0.000000 0.000000 -50.009300 21.433500 -20.564100 26.114401 -26.958900 -73.732597 -0.234600 -9.148200 -2.442600 0.000000 0.000000 0.000000 0.000000 0.000000 0.000000 0.000000 0.000000 0.000000 -0.013200 0.006100 -0.005200 0.000000 0.000000 0.000000 -0.032900 0.030200 -0.004900 0.000000 0.000000 0.000000 -0.030100 0.004100 -0.032400 0.000000 0.000000 0.000000 -0.003800 -0.018400 0.013800 0.000000 0.000000 0.000000 -1.093400 -0.412400 0.315700 0.410000 27.453100 -2.325600 -1.673600 -8.816000 -7.455000 0.000000 0.000000 0.000000 1.177400 -12.523100 -12.020600 4.928300 32.812801 -1.079400 2.914600 -10.888600 3.897200 
